<mxfile host="app.diagrams.net" modified="2023-06-28T05:35:30.547Z" agent="Mozilla/5.0 (Windows NT 10.0; Win64; x64) AppleWebKit/537.36 (KHTML, like Gecko) Chrome/114.0.0.0 Safari/537.36" version="21.2.1" etag="xyg1GkO7ji6tcB6fG6VR" type="github">
  <diagram name="Page-1" id="NoYm7Ep-3Q0RSz-Ohl_m">
    <mxGraphModel>
      <root>
        <mxCell id="0" />
        <mxCell id="1" parent="0" />
      </root>
    </mxGraphModel>
  </diagram>
</mxfile>
